<?xml version="1.0" encoding="utf-8"?>
<svg xmlns="http://www.w3.org/2000/svg" xmlns:xlink="http://www.w3.org/1999/xlink" width="600" height="400" viewBox="0 0 2400 1600">
<defs>
  <clipPath id="clip5300">
    <rect x="0" y="0" width="2000" height="2000"/>
  </clipPath>
</defs>
<defs>
  <clipPath id="clip5301">
    <rect x="0" y="0" width="2400" height="1600"/>
  </clipPath>
</defs>
<polygon clip-path="url(#clip5301)" points="
0,1600 2400,1600 2400,0 0,0 
  " fill="#ffffff" fill-rule="evenodd" fill-opacity="1"/>
<defs>
  <clipPath id="clip5302">
    <rect x="480" y="0" width="1681" height="1600"/>
  </clipPath>
</defs>
<polygon clip-path="url(#clip5301)" points="
174.775,1503.47 2321.26,1503.47 2321.26,125.984 174.775,125.984 
  " fill="#ffffff" fill-rule="evenodd" fill-opacity="1"/>
<defs>
  <clipPath id="clip5303">
    <rect x="174" y="125" width="2147" height="1378"/>
  </clipPath>
</defs>
<polyline clip-path="url(#clip5303)" style="stroke:#000000; stroke-width:2; stroke-opacity:0.1; fill:none" points="
  673.359,1503.47 673.359,125.984 
  "/>
<polyline clip-path="url(#clip5303)" style="stroke:#000000; stroke-width:2; stroke-opacity:0.1; fill:none" points="
  1220.65,1503.47 1220.65,125.984 
  "/>
<polyline clip-path="url(#clip5303)" style="stroke:#000000; stroke-width:2; stroke-opacity:0.1; fill:none" points="
  1767.95,1503.47 1767.95,125.984 
  "/>
<polyline clip-path="url(#clip5303)" style="stroke:#000000; stroke-width:2; stroke-opacity:0.1; fill:none" points="
  2315.24,1503.47 2315.24,125.984 
  "/>
<polyline clip-path="url(#clip5303)" style="stroke:#000000; stroke-width:2; stroke-opacity:0.1; fill:none" points="
  174.775,1319.2 2321.26,1319.2 
  "/>
<polyline clip-path="url(#clip5303)" style="stroke:#000000; stroke-width:2; stroke-opacity:0.1; fill:none" points="
  174.775,1077.05 2321.26,1077.05 
  "/>
<polyline clip-path="url(#clip5303)" style="stroke:#000000; stroke-width:2; stroke-opacity:0.1; fill:none" points="
  174.775,834.908 2321.26,834.908 
  "/>
<polyline clip-path="url(#clip5303)" style="stroke:#000000; stroke-width:2; stroke-opacity:0.1; fill:none" points="
  174.775,592.762 2321.26,592.762 
  "/>
<polyline clip-path="url(#clip5303)" style="stroke:#000000; stroke-width:2; stroke-opacity:0.1; fill:none" points="
  174.775,350.615 2321.26,350.615 
  "/>
<polyline clip-path="url(#clip5301)" style="stroke:#000000; stroke-width:4; stroke-opacity:1; fill:none" points="
  174.775,1503.47 2321.26,1503.47 
  "/>
<polyline clip-path="url(#clip5301)" style="stroke:#000000; stroke-width:4; stroke-opacity:1; fill:none" points="
  174.775,1503.47 174.775,125.984 
  "/>
<polyline clip-path="url(#clip5301)" style="stroke:#000000; stroke-width:4; stroke-opacity:1; fill:none" points="
  673.359,1503.47 673.359,1482.81 
  "/>
<polyline clip-path="url(#clip5301)" style="stroke:#000000; stroke-width:4; stroke-opacity:1; fill:none" points="
  1220.65,1503.47 1220.65,1482.81 
  "/>
<polyline clip-path="url(#clip5301)" style="stroke:#000000; stroke-width:4; stroke-opacity:1; fill:none" points="
  1767.95,1503.47 1767.95,1482.81 
  "/>
<polyline clip-path="url(#clip5301)" style="stroke:#000000; stroke-width:4; stroke-opacity:1; fill:none" points="
  2315.24,1503.47 2315.24,1482.81 
  "/>
<polyline clip-path="url(#clip5301)" style="stroke:#000000; stroke-width:4; stroke-opacity:1; fill:none" points="
  174.775,1319.2 206.972,1319.2 
  "/>
<polyline clip-path="url(#clip5301)" style="stroke:#000000; stroke-width:4; stroke-opacity:1; fill:none" points="
  174.775,1077.05 206.972,1077.05 
  "/>
<polyline clip-path="url(#clip5301)" style="stroke:#000000; stroke-width:4; stroke-opacity:1; fill:none" points="
  174.775,834.908 206.972,834.908 
  "/>
<polyline clip-path="url(#clip5301)" style="stroke:#000000; stroke-width:4; stroke-opacity:1; fill:none" points="
  174.775,592.762 206.972,592.762 
  "/>
<polyline clip-path="url(#clip5301)" style="stroke:#000000; stroke-width:4; stroke-opacity:1; fill:none" points="
  174.775,350.615 206.972,350.615 
  "/>
<g clip-path="url(#clip5301)">
<text style="fill:#000000; fill-opacity:1; font-family:Arial,Helvetica Neue,Helvetica,sans-serif; font-size:48px; text-anchor:middle;" transform="rotate(0, 673.359, 1557.47)" x="673.359" y="1557.47">0.5</text>
</g>
<g clip-path="url(#clip5301)">
<text style="fill:#000000; fill-opacity:1; font-family:Arial,Helvetica Neue,Helvetica,sans-serif; font-size:48px; text-anchor:middle;" transform="rotate(0, 1220.65, 1557.47)" x="1220.65" y="1557.47">1.0</text>
</g>
<g clip-path="url(#clip5301)">
<text style="fill:#000000; fill-opacity:1; font-family:Arial,Helvetica Neue,Helvetica,sans-serif; font-size:48px; text-anchor:middle;" transform="rotate(0, 1767.95, 1557.47)" x="1767.95" y="1557.47">1.5</text>
</g>
<g clip-path="url(#clip5301)">
<text style="fill:#000000; fill-opacity:1; font-family:Arial,Helvetica Neue,Helvetica,sans-serif; font-size:48px; text-anchor:middle;" transform="rotate(0, 2315.24, 1557.47)" x="2315.24" y="1557.47">2.0</text>
</g>
<g clip-path="url(#clip5301)">
<text style="fill:#000000; fill-opacity:1; font-family:Arial,Helvetica Neue,Helvetica,sans-serif; font-size:48px; text-anchor:end;" transform="rotate(0, 150.775, 1336.7)" x="150.775" y="1336.7">90</text>
</g>
<g clip-path="url(#clip5301)">
<text style="fill:#000000; fill-opacity:1; font-family:Arial,Helvetica Neue,Helvetica,sans-serif; font-size:48px; text-anchor:end;" transform="rotate(0, 150.775, 1094.55)" x="150.775" y="1094.55">120</text>
</g>
<g clip-path="url(#clip5301)">
<text style="fill:#000000; fill-opacity:1; font-family:Arial,Helvetica Neue,Helvetica,sans-serif; font-size:48px; text-anchor:end;" transform="rotate(0, 150.775, 852.408)" x="150.775" y="852.408">150</text>
</g>
<g clip-path="url(#clip5301)">
<text style="fill:#000000; fill-opacity:1; font-family:Arial,Helvetica Neue,Helvetica,sans-serif; font-size:48px; text-anchor:end;" transform="rotate(0, 150.775, 610.262)" x="150.775" y="610.262">180</text>
</g>
<g clip-path="url(#clip5301)">
<text style="fill:#000000; fill-opacity:1; font-family:Arial,Helvetica Neue,Helvetica,sans-serif; font-size:48px; text-anchor:end;" transform="rotate(0, 150.775, 368.115)" x="150.775" y="368.115">210</text>
</g>
<g clip-path="url(#clip5301)">
<text style="fill:#000000; fill-opacity:1; font-family:Arial,Helvetica Neue,Helvetica,sans-serif; font-size:84px; text-anchor:middle;" transform="rotate(0, 1248.02, 73.2)" x="1248.02" y="73.2">Konvergenca SOR v odvisnosti od omega</text>
</g>
<polyline clip-path="url(#clip5303)" style="stroke:#009af9; stroke-width:4; stroke-opacity:1; fill:none" points="
  235.525,173.041 287.447,164.97 339.37,173.041 391.293,205.328 443.216,213.399 495.138,237.614 547.061,261.828 598.984,286.043 650.906,310.258 702.829,334.472 
  754.752,358.687 806.675,382.902 858.597,399.045 910.52,423.259 962.443,439.402 1014.37,447.474 1066.29,439.402 1118.21,415.188 1170.13,366.759 1222.06,294.115 
  1273.98,229.542 1325.9,213.399 1377.82,221.471 1429.75,253.757 1481.67,294.115 1533.59,342.544 1585.52,407.116 1637.44,479.76 1689.36,552.404 1741.28,633.12 
  1793.21,721.907 1845.13,810.694 1897.05,907.552 1948.97,1012.48 2000.9,1117.41 2052.82,1230.41 2104.74,1343.42 2156.66,1464.49 2208.59,1246.56 2260.51,955.982 
  
  "/>
<polygon clip-path="url(#clip5301)" points="
1958.43,330.464 2249.26,330.464 2249.26,209.504 1958.43,209.504 
  " fill="#ffffff" fill-rule="evenodd" fill-opacity="1"/>
<polyline clip-path="url(#clip5301)" style="stroke:#000000; stroke-width:4; stroke-opacity:1; fill:none" points="
  1958.43,330.464 2249.26,330.464 2249.26,209.504 1958.43,209.504 1958.43,330.464 
  "/>
<polyline clip-path="url(#clip5301)" style="stroke:#009af9; stroke-width:4; stroke-opacity:1; fill:none" points="
  1982.43,269.984 2126.43,269.984 
  "/>
<g clip-path="url(#clip5301)">
<text style="fill:#000000; fill-opacity:1; font-family:Arial,Helvetica Neue,Helvetica,sans-serif; font-size:48px; text-anchor:start;" transform="rotate(0, 2150.43, 287.484)" x="2150.43" y="287.484">y1</text>
</g>
</svg>
